<svg width="136" height="43" viewBox="0 0 136 43" fill="none" xmlns="http://www.w3.org/2000/svg">
<path fill-rule="evenodd" clip-rule="evenodd" d="M19.0619 0.95868C22.6248 0.831435 26.8239 1.5949 27.5873 4.01256C28.8598 8.08439 22.3703 14.0649 16.7715 16.9915C15.3718 17.755 14.6084 17.8823 14.2266 17.8823C13.8449 17.8823 13.8449 17.5005 13.9721 17.246C14.2266 16.8643 15.1173 15.9736 16.2625 14.9556C22.6248 9.99307 24.6607 6.30297 23.5155 4.90327C22.752 4.01256 19.5709 3.24909 16.1353 3.24909C15.2446 3.24909 12.8269 3.50358 12.5724 2.61286C12.4452 1.97664 15.6263 1.08592 19.0619 0.95868Z" fill="white"/>
<path fill-rule="evenodd" clip-rule="evenodd" d="M11.6817 19.7909C14.7356 19.6637 18.4257 20.1727 20.4616 21.6996C21.4796 22.4631 22.2431 23.99 21.7341 25.6442C20.5889 30.3523 16.1353 36.0783 6.2102 40.4046C3.02907 41.8043 0.61142 42.3133 0.10244 41.9315C-0.40654 41.5498 1.1204 38.3687 1.62938 37.3507C3.15632 34.0424 5.19224 30.734 7.10091 27.8074C7.86438 26.6622 8.88234 24.7535 9.9003 25.008C10.791 25.1352 9.77305 27.1711 9.00958 28.4436C7.86438 30.6067 4.68326 36.5873 5.70122 36.969C7.99162 37.7325 18.8074 29.4615 17.2805 24.8807C16.517 22.7176 11.809 22.5903 8.88234 22.5903C7.48264 22.5903 4.55601 22.972 4.42877 21.8268C4.30152 20.9361 8.88234 19.9182 11.6817 19.7909Z" fill="white"/>
<path fill-rule="evenodd" clip-rule="evenodd" d="M35.0948 14.7011C36.8762 15.0829 38.4032 15.3374 38.7849 16.1008C39.1666 16.9915 37.1307 16.9915 36.24 16.9915C31.4047 17.1188 28.6053 17.1188 28.3508 18.773C28.2236 20.8089 30.3867 22.972 32.5499 25.8987C34.5858 28.5708 36.8762 31.243 36.24 33.7879C35.4765 36.8417 31.6592 37.6052 27.9691 37.6052C24.5335 37.6052 21.2251 37.0962 19.8254 36.8417C18.044 36.46 18.4257 35.6965 18.8074 35.442C19.3164 35.1876 22.2431 35.1876 24.279 35.0603C25.9332 34.8058 30.7685 34.8058 31.5319 33.5334C32.4226 32.0064 30.1322 29.4615 28.0963 26.6621C25.5514 23.2265 22.6248 19.7909 24.1517 17.1188C26.1876 13.9377 31.9137 14.0649 35.0948 14.7011Z" fill="white"/>
<path fill-rule="evenodd" clip-rule="evenodd" d="M109.915 23.99C113.732 23.99 115.259 22.7176 115.895 19.6637L116.786 14.9556C116.786 14.7011 116.659 14.5739 116.404 14.5739H114.496L113.987 17.246L113.732 18.6457L113.478 19.9182C113.096 21.6996 112.078 22.4631 110.169 22.4631C108.133 22.4631 107.497 21.6996 107.879 19.9182C107.879 19.9182 108.006 19.5364 108.006 19.4092L108.388 17.246L108.897 14.5739H106.988C106.734 14.5739 106.479 14.7011 106.479 14.9556L105.588 19.6637C104.952 22.972 106.606 23.99 109.915 23.99ZM44.3837 29.207C44.1292 30.4795 45.1471 31.1157 47.1831 32.3882C49.4735 33.7879 49.9824 33.9151 49.728 34.6786C49.6007 35.3148 48.9645 35.3148 47.9465 35.3148H43.8747C43.3657 35.3148 43.1112 35.442 43.1112 35.951L42.984 36.7145H48.0738C50.3642 36.7145 51.8911 36.5873 52.4001 35.1876C52.6546 34.5513 52.6546 33.7879 52.0184 33.0244C51.6366 32.6427 51.2549 32.3882 50.6187 32.0064C47.692 30.3522 46.9286 30.225 47.0558 29.3343C47.1831 28.8253 47.4375 28.8253 48.5827 28.8253H52.0184C52.5273 28.8253 52.7818 28.6981 52.7818 28.1891L52.9091 27.2984H48.5827C46.2923 27.4256 44.7654 27.4256 44.3837 29.207ZM67.0333 29.207C66.7788 30.4795 67.7967 31.1157 69.8326 32.3882C72.1231 33.7879 72.632 33.9151 72.3775 34.6786C72.2503 35.3148 71.6141 35.3148 70.5961 35.3148H66.5243C66.0153 35.3148 65.7608 35.442 65.7608 35.951L65.6336 36.8417H70.7234C73.0138 36.8417 74.5407 36.7145 75.0497 35.3148C75.3042 34.6786 75.3042 33.9151 74.668 33.1516C74.2862 32.7699 73.9045 32.5154 73.2683 32.1337C70.3416 30.4795 69.5782 30.3522 69.7054 29.4615C69.8326 28.9526 70.0871 28.9526 71.2323 28.9526H74.668C75.1769 28.9526 75.4314 28.8253 75.4314 28.3163L75.5587 27.4256H71.2323C68.8147 27.4256 67.415 27.4256 67.0333 29.207ZM124.166 29.207C123.912 30.4795 124.93 31.1157 126.966 32.3882C129.256 33.7879 129.765 33.9151 129.511 34.6786C129.383 35.3148 128.747 35.3148 127.729 35.3148H123.657C123.148 35.3148 122.894 35.442 122.894 35.951L122.767 36.8417H127.856C130.147 36.8417 131.674 36.7145 132.183 35.3148C132.437 34.6786 132.437 33.9151 131.801 33.1516C131.419 32.7699 131.037 32.5154 130.401 32.1337C127.475 30.4795 126.711 30.3522 126.838 29.4615C126.966 28.9526 127.22 28.9526 128.365 28.9526H131.801C132.31 28.9526 132.564 28.8253 132.564 28.3163L132.692 27.4256H128.365C125.948 27.4256 124.548 27.4256 124.166 29.207ZM90.4463 22.2086C90.7008 21.5724 90.7008 20.8089 90.0646 20.0454C89.6829 19.6637 89.3011 19.4092 88.6649 19.0275C85.7383 17.3733 84.9748 17.246 85.102 16.3553C85.2293 15.8463 85.4838 15.8463 86.629 15.8463H90.0646C90.5736 15.8463 90.8281 15.7191 90.8281 15.2101L90.9553 14.3194H86.629C84.2113 14.3194 82.6844 14.3194 82.3027 16.1008C82.0482 17.3733 83.0661 18.0095 85.102 19.2819C87.3924 20.6816 87.9014 20.8089 87.6469 21.5724C87.5197 22.2086 86.8835 22.2086 85.8655 22.2086H81.7937C81.2847 22.2086 81.0302 22.3358 81.0302 22.8448L80.903 23.7355H85.9928C88.4104 23.8628 89.8101 23.6083 90.4463 22.2086ZM79.5033 22.2086C79.7577 21.5724 79.7578 20.8089 79.1215 20.0454C78.7398 19.6637 78.3581 19.4092 77.7218 19.0275C74.7952 17.3733 74.0317 17.246 74.159 16.3553C74.2862 15.8463 74.5407 15.8463 75.6859 15.8463H79.1215C79.6305 15.8463 79.885 15.7191 79.885 15.2101L80.0122 14.3194H75.6859C73.2683 14.3194 71.7413 14.3194 71.3596 16.1008C71.1051 17.3733 72.1231 18.0095 74.159 19.2819C76.4494 20.6816 76.9584 20.8089 76.7039 21.5724C76.5766 22.2086 75.9404 22.2086 74.9224 22.2086H70.9779C70.4689 22.2086 70.2144 22.3358 70.2144 22.8448L70.0871 23.7355H75.1769C77.4673 23.8628 78.9943 23.6083 79.5033 22.2086ZM127.093 14.4466C126.584 14.4466 126.329 14.5739 126.329 14.9556L126.202 15.8463H129.892L128.365 23.7355H130.019C130.528 23.7355 130.783 23.6083 130.783 23.0993L132.183 15.8463H135.237C135.618 15.8463 135.873 15.5918 135.873 15.3374L136 14.4466H127.093ZM47.1831 17.1188C46.9286 17.1188 46.8013 17.246 46.8013 17.3733L45.5289 23.7355H51.0004C54.0543 23.7355 56.2174 22.5903 56.8537 19.0275C57.3626 16.3553 56.2174 14.4466 53.0363 14.4466H46.4196V14.5739C46.2923 15.2101 46.2923 15.8463 47.4375 15.8463H52.2728C54.5633 15.8463 54.945 16.9915 54.436 19.0275C53.927 21.0634 53.1636 22.0813 51.3821 22.2086H48.0738L49.0917 16.8643H47.1831V17.1188ZM125.82 22.972C125.948 22.5903 125.693 22.4631 125.439 22.4631H120.476L122.003 14.9556C122.003 14.8284 121.876 14.7011 121.749 14.7011H119.713L117.931 23.99H125.82V22.972ZM110.933 27.4256H108.77L104.698 30.9885L102.026 27.2984H99.8624C99.4807 27.2984 99.3535 27.5529 99.2262 27.9346L97.572 36.5873H99.3535C99.7352 36.5873 99.9897 36.46 99.9897 36.0783L101.262 29.5888L103.298 32.5154C103.298 32.6427 103.553 32.7699 103.807 32.7699H104.698C104.952 32.7699 105.207 32.6427 105.334 32.5154L108.515 29.5888L107.243 36.0783C107.115 36.46 107.37 36.5873 107.752 36.5873H109.533L111.187 27.9346C111.314 27.6801 111.187 27.4256 110.933 27.4256ZM88.5377 28.0618L86.8835 36.7145H95.5361L95.6634 35.8238C95.7906 35.442 95.6634 35.3148 95.1544 35.3148H89.4284L89.9373 32.7699H95.0271C95.1544 32.7699 95.2816 32.6427 95.2816 32.5154L95.5361 31.4975C95.5361 31.3702 95.5361 31.243 95.4089 31.243H90.3191L90.8281 28.6981H96.2996C96.5541 28.6981 96.8086 28.6981 96.9358 28.3163L97.1903 27.1711H89.4284C88.9194 27.4256 88.6649 27.5529 88.5377 28.0618ZM114.114 28.0618L112.46 36.7145H121.112L121.24 35.8238C121.367 35.442 121.24 35.3148 120.731 35.3148H115.005L115.514 32.7699H120.603C120.731 32.7699 120.858 32.6427 120.858 32.5154L121.112 31.4975C121.112 31.3702 121.112 31.243 120.985 31.243H115.895L116.404 28.6981H121.876C122.13 28.6981 122.385 28.6981 122.512 28.3163L122.767 27.1711H115.005C114.496 27.4256 114.241 27.5529 114.114 28.0618ZM62.4524 27.6801L61.689 31.8792C60.2893 32.2609 56.4719 33.1516 57.1082 30.0978L57.6171 27.2984H55.7085C55.454 27.2984 55.3267 27.4256 55.3267 27.5529L54.8177 30.0978C53.927 34.9331 58.5078 34.2968 61.4345 33.4061L60.7983 36.7145H62.4524C62.9614 36.7145 63.2159 36.5873 63.2159 36.0783L64.8701 27.4256H62.8342C62.7069 27.4256 62.5797 27.5529 62.4524 27.6801ZM87.138 28.3163L87.2652 27.4256H78.3581C77.8491 27.4256 77.5946 27.5529 77.5946 27.9346L77.3401 28.8253H81.0302L79.5033 36.7145H81.1574C81.6664 36.7145 81.9209 36.5873 81.9209 36.0783L83.3206 28.8253H86.3745C86.8835 28.8253 87.0107 28.6981 87.138 28.3163ZM61.4345 18.3912C61.8162 16.6098 62.8342 15.9736 64.7428 15.9736C66.7788 15.9736 67.2877 16.737 66.906 18.3912C66.906 18.3912 66.7788 18.773 66.7788 18.9002C66.7788 19.1547 66.6515 19.5364 66.1425 19.5364H61.18L61.4345 18.3912ZM58.6351 23.8628H60.4165L60.9255 21.1906H66.397L65.8881 23.8628H67.6695C67.924 23.8628 68.1785 23.7355 68.1785 23.481L69.0692 18.773C69.7054 15.2101 67.6695 14.4466 64.9973 14.4466C61.689 14.4466 59.9075 15.2101 59.1441 18.773L58.2534 23.3538C58.2534 23.7355 58.3806 23.8628 58.6351 23.8628ZM95.6634 18.3912C96.0451 16.6098 97.0631 15.9736 98.9717 15.9736C101.008 15.9736 101.517 16.737 101.135 18.3912C101.135 18.3912 101.008 18.773 101.008 18.9002C101.008 19.1547 100.88 19.5364 100.371 19.5364H95.4089L95.6634 18.3912ZM92.864 23.8628H94.6454L95.1544 21.1906H100.626L100.117 23.8628H101.898C102.153 23.8628 102.407 23.7355 102.407 23.481L103.298 18.773C103.934 15.2101 101.898 14.4466 99.2262 14.4466C95.9179 14.4466 94.1364 15.2101 93.373 18.773L92.4822 23.3538C92.4822 23.7355 92.6095 23.8628 92.864 23.8628Z" fill="white"/>
</svg>
